<svg width="343" height="113" viewBox="0 0 343 113" fill="none" xmlns="http://www.w3.org/2000/svg">
<g opacity="0.2">
<path d="M20.0718 1.33115V111.373H0.5V1.33115H20.0718Z" fill="white"/>
<path d="M26.2236 111.373V1.33115H50.3572L57.8621 56.9437L65.3671 1.33115H87.882V111.373H70.2233V46.2945L60.5109 111.373H53.1531L43.2937 46.2945V111.373H26.2236Z" fill="white"/>
<path d="M122.896 67.2971H113.625V111.373H94.0533V1.33115H121.866C129.714 1.33115 135.012 3.10602 137.759 6.65576C140.604 10.2055 142.026 15.678 142.026 23.0733V45.1113C142.026 59.9018 135.649 67.2971 122.896 67.2971ZM113.625 18.3403V49.4005H117.304C119.364 49.4005 120.689 48.9075 121.277 47.9215C121.964 46.8368 122.307 45.2592 122.307 43.1885V24.8482C122.307 22.5803 121.964 20.9533 121.277 19.9673C120.689 18.8826 119.364 18.3403 117.304 18.3403H113.625Z" fill="white"/>
<path d="M147.078 85.7853V1.33115H167.238V86.5249C167.238 91.0606 168.857 93.3285 172.094 93.3285C175.234 93.3285 176.803 91.0606 176.803 86.5249V1.33115H196.964V85.7853C196.964 94.7583 194.953 101.562 190.93 106.196C187.006 110.732 181.463 113 174.302 113H169.446C154.534 113 147.078 103.928 147.078 85.7853Z" fill="white"/>
<path d="M202.983 1.33115H222.555V91.5537H243.304V111.373H202.983V1.33115Z" fill="white"/>
<path d="M269.308 0H273.281C280.835 0 286.231 1.72557 289.469 5.1767C292.706 8.62783 294.325 14.1003 294.325 21.5942V36.3848H275.489V22.6296C275.489 18.784 274.066 16.8613 271.221 16.8613C268.376 16.8613 266.954 18.8333 266.954 22.7775V25.2919C266.954 30.2221 268.965 34.9551 272.987 39.4908L284.171 52.0628C288.88 57.3874 292.019 62.1697 293.589 66.4097C295.257 70.551 296.091 75.1854 296.091 80.3128V85.4895C296.091 94.0681 294.079 100.773 290.057 105.605C286.133 110.338 280.198 112.704 272.251 112.704H268.425C253.513 112.704 246.058 105.112 246.058 89.9267V70.1073H265.335V87.7081C265.335 92.1453 267.003 94.3639 270.338 94.3639C273.576 94.3639 275.194 91.7016 275.194 86.377V84.3063C275.194 80.1649 274.802 77.0589 274.017 74.9882C273.331 72.8189 271.614 70.2059 268.867 67.1492L257.536 54.5772C253.612 50.3373 250.865 46.048 249.295 41.7094C247.823 37.3709 247.088 32.3421 247.088 26.623V21.8901C247.088 14.8892 249.05 9.51527 252.974 5.76832C256.898 1.92277 262.343 0 269.308 0Z" fill="white"/>
<path d="M300.561 1.33115H341.47V20.7068H320.132V44.6675H336.908V64.4869H320.132V91.5537H342.5V111.373H300.561V1.33115Z" fill="white"/>
</g>
</svg>
