 <svg
              viewBox="0 0 654 582"
              fill="none"
              xmlns="http://www.w3.org/2000/svg"
            >
              <g opacity="0.02" clip-path="url(#clip0_1340_2199)">
                <path
                  d="M650.079 48.8751C649.872 46.7654 649.253 44.9932 646.863 44.1831C609.169 30.4614 570.874 17.9886 531.048 11.7438C466.408 -0.526376 395.887 -4.57706 331.402 6.37667C311.626 9.88726 293.123 13.4485 273.193 18.4106C254.69 22.8157 271.92 22.1575 290.251 25.4993C297.766 26.8664 312.176 30.9508 323.044 33.7694C419.101 14.9169 592.455 13.9548 583.908 147.172C578.234 218.852 525.356 276 476.932 325.638C444.603 357.655 407.7 384.947 370.23 410.838C347.738 426.23 321.651 436.644 300.707 454.045C284.8 469.319 297.904 491.075 309.769 504.527C343.576 542.822 398.019 547.987 447.183 522.08C415.49 557.405 386.601 588.933 347.239 625.068C345.674 626.503 344.797 626.975 342.596 625.811C269.375 587.211 158.96 521.607 135.023 474.062C132.409 468.881 129.279 459.412 128.66 451.868C127.99 443.901 132.461 428.762 134.438 423.142C148.195 383.698 177.101 370.078 187.35 313.773C189.689 297.655 188.09 273.367 186.68 274.245C175.227 281.351 175.227 278.735 175.262 281.047C176.723 304.186 177.652 313.182 169.587 333.824C153.509 370.246 121.404 395.884 109.607 436.492C95.0248 418.585 80.2362 396.39 68.6288 371.343C49.4552 332.761 38.4154 294.971 31.1587 252.692C30.1613 240.776 25.7247 220.067 29.2155 212.388C38.8797 195.375 52.0862 180.776 70.0045 164.387C70.9847 163.493 68.2161 159.644 65.5851 152.235C62.4039 143.222 60.5811 135.847 60.3575 136.083C37.1601 159.408 19.3794 177.417 3.42143 200.118C-1.70299 208.928 0.446513 222.413 0.15418 229.873C9.59481 346.347 72.1024 459.935 161.298 537.151C201.864 570.587 252.42 600.376 297.887 627.026C314.36 636.663 329.476 644.005 346.121 653.355C348.323 654.588 351.693 654.031 353.395 652.529C429.849 587.363 497.464 512.155 554.813 430.264C635.806 321.351 665.418 181.754 650.027 48.9089L650.079 48.8751ZM617.166 164.91C611.886 224.489 598.25 283.528 573.608 338.347C554.176 384.221 526.216 422.146 493.32 463.665C451.138 506.603 384.847 547.109 327.876 499.548C320.654 491.328 308.754 480.695 310.732 469.134C327.326 454.146 348.649 445.083 366.843 432.087C426.685 393.167 483.311 348.845 528.709 293.84C588.397 228.574 642.186 111.965 554.262 46.8329L555.036 45.7696C575.018 53.0777 599.024 55.7106 616.615 66.8331C620.003 99.4243 620.175 132.285 617.166 164.91Z"
                  fill="white"
                />
                <path
                  d="M146.324 470.021C157.003 488.317 177.518 508.705 195.488 517.65C207.198 518.95 213.922 518.106 227.679 516.131C244.239 513.751 266.043 513.093 259.887 499.304C245.683 467.439 249.105 448.417 262.398 416.569C269.431 407.1 190.673 382.813 182.35 384.096C164.759 383.995 147.15 417.716 142.283 446.308C140.564 456.4 143.367 464.958 146.324 470.021Z"
                  fill="white"
                />
                <path
                  d="M279.275 391.852C311.363 352.813 347.406 322.045 371.274 278.956C373.75 274.483 370.947 270.854 368.454 269.285C344.861 254.382 313.151 251.09 293.634 252.778C285.844 253.47 285.534 262.129 281.717 267.378C275.148 280.525 266.997 292.593 255.923 302.534C233.276 322.669 206.536 339.564 187.637 363.278C184.903 366.704 186.588 372.223 190.973 372.881C216.578 376.662 241.805 387.801 261.357 397.624C267.582 400.746 272.981 399.548 279.292 391.885L279.275 391.852Z"
                  fill="white"
                />
                <path
                  d="M380.737 141.067C362.234 138.62 338.314 144.004 329.888 169.439C318.281 204.46 312.623 221.152 294.43 243.009C316.492 242.756 338.813 242.385 359.637 250.571C365.363 253.524 383.832 263.128 386.325 259.145C404.467 236.444 415.301 215.195 412.567 183.009C411.346 173.911 415.593 143.936 380.754 141.067H380.737Z"
                  fill="white"
                />
                <path
                  d="M537.444 163.145C518.907 140.748 493.354 125.153 465.995 114.79C461.283 113.102 457.844 110.368 455.798 105.71C452.444 99.3636 447.767 92.0218 440.734 89.4395C481.23 167.398 439.358 257.408 379.877 314.607C346.052 349.055 300.62 381.325 287.672 428.819C303.716 400.026 326.655 371.131 355.94 350.877C368.407 343.974 382.061 358.692 392.138 365.055C394.098 366.101 396.196 369.781 398.552 368.43C393.479 355.569 381.201 347.755 370.78 339.249C384.09 320.734 403.78 306.809 416.591 288.024C427.218 272.514 438.258 258.134 447.234 241.678C450.794 233.019 454.921 233.931 463.175 235.619C483.105 238.032 497.79 249.07 512.373 261.104C502.691 239.771 480.629 228.699 458.429 223.568C450.88 223.045 462.556 194.048 462.28 187.787C466.098 168.884 464.464 150.369 464.55 131.178C486.063 132.799 506.302 144.512 524.53 155.516C528.95 157.829 532.458 162.352 537.462 163.179L537.444 163.145Z"
                  fill="white"
                />
                <path
                  d="M570.273 99.4404C535.313 17.2453 383.421 23.9795 308.824 47.2541C320.225 54.2078 324.645 61.3809 325.04 74.5625C347.292 65.6341 365.967 55.5749 389.68 52.0812C452.704 41.6 529.209 43.0684 570.273 99.4404Z"
                  fill="white"
                />
                <path
                  d="M192.048 37.3206C176.932 40.0548 158.051 34.3501 146.014 45.4051C137.811 53.7596 124.416 66.1648 121.32 77.4392C126.342 82.8233 124.123 97.9289 135.335 98.5534C161.817 99.6674 170.398 104.511 199.7 92.6293C217.154 85.1018 229.122 77.7599 227.179 58.131C224.17 41.7763 206.286 36.2741 192.048 37.3206ZM193.647 75.3126C187.405 82.9752 180.354 90.6715 170.226 92.9669C161.49 95.3804 155.523 84.933 150.45 79.8528C138.602 66.8737 176.279 60.6964 184.516 55.9875C190.947 53.6752 196.777 60.2576 203.466 56.747C208.263 55.4811 214.368 53.0845 219.303 54.8398C211.359 61.5403 199.992 66.1817 193.647 75.3126Z"
                  fill="white"
                />
                <path
                  d="M198.358 248.051C253.918 220.388 287.932 171.51 308.619 115.054C313.142 103.239 322.238 94.8678 330.424 85.4668C262.087 111.898 275.603 166.244 232.217 207.679C220.541 219.578 158.601 268.608 141.336 255.967C148.661 277.807 184.154 255.072 198.358 248.051Z"
                  fill="white"
                />
                <path
                  d="M221.605 90.7688C199.387 106.161 195.639 104.896 168.125 107.731C174.952 115.782 174.952 121.537 173.095 132.271C194.091 135.85 239.936 128.221 257.063 116.001C267.174 99.5453 236.6 79.9332 221.622 90.7688H221.605Z"
                  fill="white"
                />
                <path
                  d="M268.45 109.846C283.359 102.538 296.652 91.3146 311.045 82.7744C317.854 76.2089 315.894 65.4746 309.669 59.4492C303.994 53.9808 297.511 52.7993 289.378 55.4998C271.614 62.1159 254.865 67.4155 239.922 78.9093C259.044 86.3356 264.254 88.3947 268.45 109.863V109.846Z"
                  fill="white"
                />
                <path
                  d="M268.862 518.947C242.311 525.715 226.216 526.879 212.132 527.943C207.988 528.263 210.034 531.875 211.444 533.225C230.205 551.217 265.148 572.888 338.661 613.648C339.503 614.121 340.535 614.155 341.395 613.699C345.316 611.623 349.907 607.944 346.743 605.125C280.59 546.272 271.665 518.238 268.879 518.947H268.862Z"
                  fill="white"
                />
                <path
                  d="M258.371 34.4941C241.983 36.6207 244.322 36.7557 227.865 38.3085C226.902 38.3929 225.871 38.4097 225.32 39.4899C234.297 48.5196 234.709 55.4057 233.987 67.7772C233.987 69.0262 233.815 69.6506 235.604 70.849C261.071 53.0259 281.912 46.3761 309.822 40.3C295.308 37.6165 275.636 31.6248 258.388 34.4941H258.371Z"
                  fill="white"
                />
                <path
                  d="M147.622 208.955C147.21 220.331 144.991 231.386 149.531 242.745C156.925 226.998 159.935 210.221 171.697 196.921C175.755 191.487 181.413 186.811 184.594 180.955C176.563 178.373 168.137 175.351 160.932 181.394C142.773 193.833 127.4 210.795 126.316 233.411C135.379 226.947 137.7 214.474 147.605 208.955H147.622Z"
                  fill="white"
                />
                <path
                  d="M156.329 131.715C172.975 128.12 163.586 106.584 147.955 105.15C134.869 104.204 120.029 103.411 108.748 108.66C104.535 110.129 108.714 118.196 107.94 123.597C110.02 131.935 148.677 131.901 156.329 131.715Z"
                  fill="white"
                />
                <path
                  d="M194.708 203.736C193.022 198.116 192.936 190.858 191.544 185.66C183.977 186.318 167.951 214.048 178.354 217.491C184.768 218.15 195.086 224.715 197.7 216.242C210.115 187.584 220.227 166.824 236.735 146.014C221.241 149.659 213.142 161.592 205.06 173.136C198.233 181.272 197.545 194.369 194.708 203.719V203.736Z"
                  fill="white"
                />
                <path
                  d="M71.4507 118.437C80.3238 119.753 91.8968 127.028 100.013 121.661C105.98 111.99 97.3135 100.631 88.8015 95.0612C70.3845 82.9766 47.5138 109.458 71.4507 118.42V118.437Z"
                  fill="white"
                />
                <path
                  d="M140.972 39.5047C142.847 37.1418 142.64 36.2642 139.803 35.4203C132.168 33.2937 123.346 29.2936 116.623 35.6059C106.941 44.9056 96.1252 51.1842 87.957 61.7835C125.891 74.56 111.154 63.5725 140.972 39.5047Z"
                  fill="white"
                />
                <path
                  d="M203.538 28.9905C216.005 27.9948 235.626 31.8429 252.375 25.3618C231.55 19.3195 204.295 19.9946 184.966 19.2183C166.635 19.0157 138.76 15.252 131.848 25.8513C151.4 33.6657 167.478 29.9863 203.538 28.9737V28.9905Z"
                  fill="white"
                />
                <path
                  d="M102.648 99.9647C106.363 102.058 119.879 99.8972 119.758 96.6735C119.569 89.1291 115.442 78.7661 107.721 75.3737C86.7418 69.2639 83.1822 62.4959 67.0352 81.9729C81.6346 89.7536 91.2988 79.0699 102.665 99.9647H102.648Z"
                  fill="white"
                />
                <path
                  d="M56.4909 114.01C50.0939 104.609 52.2778 99.4439 65.6392 88.0176C56.4909 84.5914 48.082 92.1189 43.6798 99.2414C32.5196 117.284 55.6655 132.98 56.4909 114.01Z"
                  fill="white"
                />
                <path
                  d="M76.1282 129.268C72.2762 140.93 82.4047 169.724 95.5081 179.074C90.9683 162.99 86.7037 148.913 87.8043 132.66C82.5251 131.681 81.029 130.922 76.111 129.268H76.1282Z"
                  fill="white"
                />
                <path
                  d="M129.879 184.235C126.044 169.366 126.904 156.539 126.302 141.686C120.713 141.518 117.687 140.708 113.25 139.307C111.221 153.197 119.613 177.029 129.879 184.219V184.235Z"
                  fill="white"
                />
                <path
                  d="M170.926 68.7736C170.875 70.4446 171.477 72.2674 169.654 73.9045C167.676 71.761 165.716 69.6175 163.549 67.2715C147.884 72.4024 168.433 89.2634 177.065 81.0101C181.106 78.1577 183.049 73.4826 181.45 69.0099C180.367 64.6048 169.98 62.0563 170.943 68.7905L170.926 68.7736Z"
                  fill="white"
                />
              </g>
              <defs>
                <clipPath id="clip0_1340_2199">
                  <rect width="654" height="582" fill="white" />
                </clipPath>
              </defs>
            </svg>