<svg  viewBox="0 0 1840 277" fill="none" xmlns="http://www.w3.org/2000/svg">
<g opacity="0.2">
<path d="M48.1087 3.25882V272.655H0V3.25882H48.1087Z" fill="white"/>
<path d="M63.2303 272.655V3.25882H122.552L141 139.405L159.448 3.25882H214.791V272.655H171.384V113.335L147.511 272.655H129.425L105.19 113.335V272.655H63.2303Z" fill="white"/>
<path d="M300.857 164.752H278.069V272.655H229.96V3.25882H298.325C317.617 3.25882 330.639 7.60392 337.391 16.2941C344.384 24.9843 347.881 38.3817 347.881 56.4863V110.438C347.881 146.647 332.207 164.752 300.857 164.752ZM278.069 44.8993V120.939H287.112C292.176 120.939 295.432 119.732 296.879 117.318C298.567 114.662 299.411 110.8 299.411 105.731V60.8314C299.411 55.2793 298.567 51.2963 296.879 48.8823C295.432 46.227 292.176 44.8993 287.112 44.8993H278.069Z" fill="white"/>
<path d="M360.298 210.013V3.25882H409.854V211.824C409.854 222.928 413.833 228.48 421.791 228.48C429.507 228.48 433.366 222.928 433.366 211.824V3.25882H482.921V210.013C482.921 231.98 477.978 248.636 468.091 259.982C458.445 271.086 444.82 276.638 427.216 276.638H415.28C378.625 276.638 360.298 254.43 360.298 210.013Z" fill="white"/>
<path d="M497.718 3.25882H545.826V224.135H596.829V272.655H497.718V3.25882Z" fill="white"/>
<path d="M660.749 0H670.515C689.083 0 702.346 4.2244 710.304 12.6732C718.262 21.122 722.241 34.5194 722.241 52.8653V89.0745H675.941V55.4C675.941 45.9856 672.444 41.2784 665.451 41.2784C658.458 41.2784 654.961 46.1063 654.961 55.7621V61.9176C654.961 73.9874 659.905 85.5743 669.792 96.6784L697.282 127.456C708.857 140.492 716.574 152.199 720.432 162.579C724.532 172.718 726.582 184.063 726.582 196.616V209.289C726.582 230.29 721.638 246.705 711.751 258.533C702.105 270.12 687.516 275.914 667.983 275.914H658.578C621.924 275.914 603.597 257.326 603.597 220.152V171.631H650.982V214.72C650.982 225.583 655.082 231.014 663.281 231.014C671.239 231.014 675.218 224.497 675.218 211.461V206.392C675.218 196.254 674.253 188.65 672.324 183.58C670.636 178.27 666.416 171.873 659.664 164.39L631.811 133.612C622.165 123.232 615.413 112.731 611.555 102.11C607.938 91.4884 606.129 79.1773 606.129 65.1765V53.5895C606.129 36.4505 610.952 23.2945 620.598 14.1216C630.244 4.70719 643.627 0 660.749 0Z" fill="white"/>
<path d="M737.569 3.25882H838.127V50.6928H785.678V109.352H826.914V157.872H785.678V224.135H840.659V272.655H737.569V3.25882Z" fill="white"/>
<path d="M941.929 0H951.696C970.264 0 983.527 4.2244 991.485 12.6732C999.443 21.122 1003.42 34.5194 1003.42 52.8653V89.0745H957.121V55.4C957.121 45.9856 953.625 41.2784 946.632 41.2784C939.638 41.2784 936.142 46.1063 936.142 55.7621V61.9176C936.142 73.9874 941.085 85.5743 950.972 96.6784L978.463 127.456C990.038 140.492 997.755 152.199 1001.61 162.579C1005.71 172.718 1007.76 184.063 1007.76 196.616V209.289C1007.76 230.29 1002.82 246.705 992.932 258.533C983.286 270.12 968.696 275.914 949.164 275.914H939.759C903.105 275.914 884.778 257.326 884.778 220.152V171.631H932.163V214.72C932.163 225.583 936.262 231.014 944.461 231.014C952.419 231.014 956.398 224.497 956.398 211.461V206.392C956.398 196.254 955.433 188.65 953.504 183.58C951.816 178.27 947.596 171.873 940.844 164.39L912.992 133.612C903.346 123.232 896.594 112.731 892.735 102.11C889.118 91.4884 887.31 79.1773 887.31 65.1765V53.5895C887.31 36.4505 892.133 23.2945 901.778 14.1216C911.424 4.70719 924.808 0 941.929 0Z" fill="white"/>
<path d="M1092.18 213.272V153.889H1139.93V214.72C1139.93 232.825 1135.46 247.791 1126.54 259.62C1117.86 271.207 1103.75 277 1084.22 277H1074.45C1053.23 277 1038.4 271.207 1029.96 259.62C1021.76 248.033 1017.66 232.583 1017.66 213.272V61.1935C1017.66 43.0889 1022.13 28.3638 1031.05 17.0183C1040.21 5.67277 1054.68 0 1074.45 0H1084.22C1095.31 0 1104.6 1.56906 1112.07 4.70719C1119.79 7.84531 1125.58 12.4318 1129.44 18.4667C1133.29 24.2601 1135.95 30.4157 1137.39 36.9333C1139.08 43.451 1139.93 50.9342 1139.93 59.383V104.644H1092.18V61.1935C1092.18 50.8135 1088.08 45.6235 1079.88 45.6235C1071.92 45.6235 1067.94 50.8135 1067.94 61.1935V213.272C1067.94 224.135 1072.04 229.566 1080.24 229.566C1088.2 229.566 1092.18 224.135 1092.18 213.272Z" fill="white"/>
<path d="M1185.72 3.25882H1302.56V50.6928H1268.19V272.655H1220.09V50.6928H1185.72V3.25882Z" fill="white"/>
<path d="M1436.39 68.4353V211.099C1436.39 231.135 1431.32 247.067 1421.2 258.895C1411.07 270.724 1397.08 276.638 1379.24 276.638H1368.39C1349.33 276.638 1334.87 271.086 1324.98 259.982C1315.09 248.636 1310.15 232.342 1310.15 211.099V68.7974C1310.15 22.9325 1329.44 0 1368.02 0H1378.88C1417.22 0 1436.39 22.8118 1436.39 68.4353ZM1386.11 212.548V64.8144C1386.11 52.9861 1381.89 47.0719 1373.45 47.0719C1364.77 47.0719 1360.43 52.9861 1360.43 64.8144V212.548C1360.43 223.169 1364.89 228.48 1373.81 228.48C1382.01 228.48 1386.11 223.169 1386.11 212.548Z" fill="white"/>
<path d="M1450.05 210.013V3.25882H1499.6V211.824C1499.6 222.928 1503.58 228.48 1511.54 228.48C1519.26 228.48 1523.12 222.928 1523.12 211.824V3.25882H1572.67V210.013C1572.67 231.98 1567.73 248.636 1557.84 259.982C1548.2 271.086 1534.57 276.638 1516.97 276.638H1505.03C1468.38 276.638 1450.05 254.43 1450.05 210.013Z" fill="white"/>
<path d="M1635.58 44.8993V112.973H1644.98C1650.05 112.973 1653.54 111.886 1655.47 109.714C1657.4 107.3 1658.37 102.955 1658.37 96.6784V60.1072C1658.37 54.0723 1657.52 50.0893 1655.83 48.1582C1654.39 45.9856 1651.25 44.8993 1646.43 44.8993H1635.58ZM1635.58 157.51V272.655H1587.47V3.25882H1663.43C1692.85 3.25882 1707.56 18.2253 1707.56 48.1582V91.247C1707.56 109.11 1700.45 121.18 1686.22 127.456C1691.28 129.387 1695.98 133.008 1700.33 138.319C1704.67 143.388 1706.84 150.389 1706.84 159.32V250.929C1706.84 259.378 1708.16 266.017 1710.82 270.844V272.655H1662.71C1659.81 269.275 1658.37 262.396 1658.37 252.016V173.442C1658.37 167.166 1657.4 162.941 1655.47 160.769C1653.78 158.596 1650.53 157.51 1645.71 157.51H1635.58Z" fill="white"/>
<path d="M1774.17 0H1783.93C1802.5 0 1815.76 4.2244 1823.72 12.6732C1831.68 21.122 1835.66 34.5194 1835.66 52.8653V89.0745H1789.36V55.4C1789.36 45.9856 1785.86 41.2784 1778.87 41.2784C1771.88 41.2784 1768.38 46.1063 1768.38 55.7621V61.9176C1768.38 73.9874 1773.32 85.5743 1783.21 96.6784L1810.7 127.456C1822.28 140.492 1829.99 152.199 1833.85 162.579C1837.95 172.718 1840 184.063 1840 196.616V209.289C1840 230.29 1835.06 246.705 1825.17 258.533C1815.52 270.12 1800.93 275.914 1781.4 275.914H1772C1735.34 275.914 1717.02 257.326 1717.02 220.152V171.631H1764.4V214.72C1764.4 225.583 1768.5 231.014 1776.7 231.014C1784.66 231.014 1788.64 224.497 1788.64 211.461V206.392C1788.64 196.254 1787.67 188.65 1785.74 183.58C1784.05 178.27 1779.83 171.873 1773.08 164.39L1745.23 133.612C1735.58 123.232 1728.83 112.731 1724.97 102.11C1721.36 91.4884 1719.55 79.1773 1719.55 65.1765V53.5895C1719.55 36.4505 1724.37 23.2945 1734.02 14.1216C1743.66 4.70719 1757.05 0 1774.17 0Z" fill="white"/>
</g>
</svg>
