<svg width="56" height="56" viewBox="0 0 56 56" fill="none" xmlns="http://www.w3.org/2000/svg">
<g clip-path="url(#clip0_1960_1286)">
<path d="M55.6644 4.1853C55.6468 4.00465 55.5938 3.8529 55.3891 3.78353C52.1615 2.60858 48.8824 1.54058 45.4722 1.00586C39.9373 -0.0448011 33.8988 -0.391649 28.3771 0.546285C26.6838 0.846886 25.0994 1.15182 23.3929 1.57671C21.8085 1.95391 23.2839 1.89755 24.8535 2.1837C25.497 2.30076 26.7309 2.65049 27.6615 2.89184C35.8866 1.27756 50.7303 1.19518 49.9985 12.6021C49.5126 18.7399 44.9848 23.6333 40.8384 27.8837C38.0702 30.6252 34.9103 32.9621 31.7019 35.179C29.7759 36.497 27.5422 37.3887 25.7488 38.8787C24.3868 40.1866 25.5088 42.0495 26.5248 43.2013C29.4196 46.4805 34.0813 46.9227 38.2911 44.7043C35.5773 47.7291 33.1036 50.4288 29.7332 53.5229C29.5992 53.6458 29.5241 53.6862 29.3357 53.5865C23.066 50.2814 13.6114 44.6639 11.5618 40.5927C11.338 40.1491 11.07 39.3383 11.017 38.6923C10.9595 38.0102 11.3424 36.7138 11.5117 36.2326C12.6897 32.8551 15.1649 31.6889 16.0424 26.8677C16.2427 25.4875 16.1057 23.4079 15.985 23.483C15.0044 24.0915 15.0044 23.8675 15.0073 24.0654C15.1325 26.0468 15.212 26.8171 14.5214 28.5846C13.1447 31.7033 10.3956 33.8986 9.38551 37.3757C8.13688 35.8424 6.87057 33.9419 5.87667 31.7973C4.2349 28.4935 3.28959 25.2577 2.66822 21.6375C2.58281 20.6172 2.20292 18.8439 2.50183 18.1864C3.32934 16.7296 4.46018 15.4795 5.99447 14.0762C6.0784 13.9996 5.84133 13.6701 5.61605 13.0357C5.34365 12.264 5.18757 11.6324 5.16843 11.6526C3.1821 13.6499 1.65959 15.1919 0.293164 17.1357C-0.145624 17.8901 0.0384313 19.0448 0.0133998 19.6836C0.821772 29.6569 6.17411 39.3831 13.8117 45.9949C17.2852 48.8578 21.6142 51.4086 25.5073 53.6906C26.9179 54.5158 28.2122 55.1444 29.6375 55.9451C29.826 56.0506 30.1146 56.0029 30.2603 55.8743C36.8068 50.2944 42.5965 43.8546 47.5071 36.8424C54.4423 27.5166 56.9779 15.5633 55.66 4.18819L55.6644 4.1853ZM52.8462 14.121C52.3941 19.2226 51.2265 24.2779 49.1165 28.9719C47.4526 32.8999 45.0584 36.1473 42.2416 39.7025C38.6297 43.3791 32.9534 46.8476 28.0752 42.775C27.4568 42.0712 26.4379 41.1607 26.6072 40.1707C28.0281 38.8874 29.854 38.1113 31.4118 36.9985C36.5359 33.6659 41.3847 29.8708 45.2719 25.1609C50.3828 19.5723 54.9886 9.58745 47.46 4.01043L47.5262 3.91938C49.2372 4.54515 51.2927 4.7706 52.7991 5.72299C53.0891 8.51367 53.1039 11.3275 52.8462 14.121Z" fill="white"/>
<path d="M12.529 40.2459C13.4433 41.8125 15.2 43.5583 16.7387 44.3242C17.7414 44.4355 18.3171 44.3633 19.4951 44.1942C20.9131 43.9904 22.7801 43.934 22.253 42.7533C21.0367 40.0248 21.3298 38.396 22.468 35.6689C23.0702 34.8582 16.3264 32.7786 15.6137 32.8884C14.1074 32.8797 12.5996 35.7672 12.1829 38.2154C12.0357 39.0796 12.2757 39.8123 12.529 40.2459Z" fill="white"/>
<path d="M23.914 33.5532C26.6615 30.2104 29.7478 27.5758 31.7915 23.8862C32.0036 23.5033 31.7636 23.1925 31.55 23.0581C29.5299 21.782 26.8147 21.5002 25.1434 21.6447C24.4764 21.704 24.4499 22.4454 24.123 22.8948C23.5606 24.0206 22.8626 25.054 21.9144 25.9052C19.9752 27.6293 17.6855 29.076 16.0673 31.1065C15.8332 31.3998 15.9775 31.8724 16.353 31.9288C18.5454 32.2525 20.7055 33.2063 22.3797 34.0474C22.9127 34.3148 23.375 34.2122 23.9154 33.5561L23.914 33.5532Z" fill="white"/>
<path d="M32.6014 12.079C31.017 11.8694 28.9689 12.3304 28.2474 14.5083C27.2535 17.5071 26.769 18.9364 25.2112 20.808C27.1003 20.7863 29.0116 20.7545 30.7947 21.4554C31.285 21.7083 32.8664 22.5306 33.0799 22.1896C34.6334 20.2458 35.561 18.4263 35.3269 15.6703C35.2223 14.8913 35.586 12.3247 32.6029 12.079H32.6014Z" fill="white"/>
<path d="M46.0198 13.9693C44.4325 12.0515 42.2445 10.7161 39.9018 9.8288C39.4984 9.68428 39.2039 9.45015 39.0287 9.05128C38.7415 8.50788 38.341 7.87922 37.7388 7.65811C41.2064 14.3335 37.621 22.0407 32.5278 26.9385C29.6315 29.8882 25.7413 32.6514 24.6326 36.7182C26.0064 34.2527 27.9706 31.7785 30.4782 30.0442C31.5457 29.4531 32.7148 30.7134 33.5777 31.2582C33.7455 31.3478 33.9252 31.6629 34.1269 31.5472C33.6925 30.446 32.6412 29.7769 31.7489 29.0485C32.8886 27.4631 34.5745 26.2708 35.6715 24.6623C36.5815 23.3342 37.5268 22.1029 38.2954 20.6938C38.6002 19.9524 38.9536 20.0305 39.6603 20.175C41.3669 20.3816 42.6244 21.3268 43.873 22.3572C43.044 20.5305 41.1549 19.5824 39.2539 19.1431C38.6075 19.0983 39.6073 16.6154 39.5838 16.0793C39.9106 14.4607 39.7708 12.8753 39.7781 11.2321C41.6202 11.3708 43.3532 12.3738 44.914 13.3161C45.2924 13.5141 45.5928 13.9014 46.0213 13.9722L46.0198 13.9693Z" fill="white"/>
<path d="M48.8306 8.51511C45.8372 1.47699 32.8311 2.05363 26.4436 4.04656C27.4198 4.64198 27.7983 5.25619 27.8321 6.38489C29.7375 5.62038 31.3365 4.75904 33.367 4.45988C38.7635 3.56241 45.3144 3.68815 48.8306 8.51511Z" fill="white"/>
<path d="M16.4443 3.19533C15.1501 3.42946 13.5333 2.94098 12.5026 3.88758C11.8003 4.60296 10.6532 5.66518 10.3882 6.63057C10.8181 7.09159 10.6282 8.38504 11.5882 8.43851C13.8558 8.5339 14.5905 8.94867 17.0996 7.93125C18.5941 7.28669 19.6189 6.65803 19.4525 4.97726C19.1949 3.57687 17.6635 3.10573 16.4443 3.19533ZM16.5813 6.44848C16.0468 7.1046 15.4431 7.76361 14.5758 7.96015C13.8278 8.16682 13.3169 7.27224 12.8825 6.83723C11.868 5.72588 15.0941 5.19693 15.7994 4.79372C16.3501 4.59573 16.8493 5.15936 17.422 4.85876C17.8329 4.75037 18.3556 4.54515 18.7782 4.69545C18.0979 5.26919 17.1246 5.66662 16.5813 6.44848Z" fill="white"/>
<path d="M16.9847 21.2401C21.7421 18.8714 24.6546 14.6861 26.426 9.85192C26.8132 8.84028 27.5922 8.12346 28.293 7.31849C22.4416 9.58167 23.5989 14.2352 19.8839 17.7832C18.8841 18.802 13.5804 23.0003 12.1021 21.9179C12.7293 23.788 15.7684 21.8413 16.9847 21.2401Z" fill="white"/>
<path d="M18.9753 7.77228C17.0729 9.0903 16.7519 8.98191 14.396 9.2247C14.9806 9.91406 14.9806 10.4069 14.8215 11.326C16.6194 11.6324 20.5449 10.9792 22.0115 9.93285C22.8773 8.52378 20.2593 6.84446 18.9768 7.77228H18.9753Z" fill="white"/>
<path d="M22.9862 9.40535C24.2629 8.77958 25.4011 7.81852 26.6335 7.08725C27.2166 6.52507 27.0487 5.60593 26.5157 5.08999C26.0298 4.62174 25.4747 4.52058 24.7782 4.75181C23.2572 5.31833 21.823 5.77212 20.5435 6.7563C22.1808 7.39219 22.627 7.5685 22.9862 9.4068V9.40535Z" fill="white"/>
<path d="M23.0216 44.4355C20.7481 45.015 19.3699 45.1148 18.164 45.2058C17.8091 45.2333 17.9843 45.5425 18.1051 45.6582C19.7115 47.1987 22.7035 49.0544 28.9982 52.5445C29.0704 52.585 29.1587 52.5879 29.2323 52.5489C29.568 52.3711 29.9612 52.0561 29.6903 51.8147C24.0258 46.7753 23.2616 44.3748 23.023 44.4355H23.0216Z" fill="white"/>
<path d="M22.1235 2.95399C20.7203 3.13608 20.9205 3.14764 19.5114 3.2806C19.4289 3.28783 19.3406 3.28927 19.2935 3.38176C20.0621 4.15495 20.0974 4.74459 20.0356 5.80392C20.0356 5.91086 20.0208 5.96433 20.174 6.06694C22.3547 4.54081 24.1393 3.9714 26.529 3.45113C25.2863 3.22135 23.6018 2.7083 22.125 2.95399H22.1235Z" fill="white"/>
<path d="M12.641 17.8916C12.6057 18.8656 12.4157 19.8122 12.8045 20.7848C13.4376 19.4365 13.6953 17.9999 14.7024 16.8611C15.0499 16.3958 15.5344 15.9955 15.8068 15.494C15.1191 15.2729 14.3976 15.0142 13.7807 15.5315C12.2258 16.5967 10.9094 18.0491 10.8167 19.9856C11.5926 19.4321 11.7914 18.3641 12.6395 17.8916H12.641Z" fill="white"/>
<path d="M13.3859 11.2783C14.8112 10.9705 14.0073 9.12643 12.6688 9.00359C11.5483 8.92266 10.2776 8.85473 9.31167 9.30419C8.95092 9.42992 9.30872 10.1207 9.24246 10.5832C9.42063 11.2971 12.7307 11.2942 13.3859 11.2783Z" fill="white"/>
<path d="M16.6724 17.445C16.5281 16.9637 16.5207 16.3423 16.4015 15.8972C15.7536 15.9535 14.3813 18.328 15.2721 18.6228C15.8213 18.6792 16.7048 19.2414 16.9286 18.5159C17.9917 16.0619 18.8575 14.2843 20.2711 12.5024C18.9444 12.8146 18.2509 13.8363 17.5588 14.8248C16.9743 15.5214 16.9154 16.6429 16.6724 17.4435V17.445Z" fill="white"/>
<path d="M6.11805 10.141C6.87783 10.2537 7.86879 10.8766 8.56378 10.417C9.07472 9.58889 8.33261 8.61627 7.60375 8.13936C6.02676 7.1046 4.06841 9.37211 6.11805 10.1395V10.141Z" fill="white"/>
<path d="M12.071 3.38321C12.2315 3.18088 12.2139 3.10573 11.9709 3.03347C11.3171 2.85138 10.5618 2.50886 9.98606 3.04937C9.15707 3.84567 8.23091 4.38329 7.53149 5.29087C10.7797 6.38489 9.51782 5.44406 12.071 3.38321Z" fill="white"/>
<path d="M17.4279 2.48285C18.4954 2.39759 20.1755 2.72709 21.6097 2.17213C19.8265 1.65475 17.4927 1.71256 15.8377 1.64608C14.2681 1.62874 11.8812 1.30646 11.2893 2.21404C12.9635 2.88317 14.3402 2.56812 17.4279 2.48141V2.48285Z" fill="white"/>
<path d="M8.78893 8.55991C9.10698 8.73912 10.2643 8.55413 10.254 8.2781C10.2378 7.63209 9.88443 6.74474 9.2233 6.45426C7.42692 5.9311 7.12213 5.35157 5.7395 7.01933C6.98961 7.68557 7.81712 6.77076 8.79041 8.55991H8.78893Z" fill="white"/>
<path d="M4.8371 9.76232C4.28935 8.95734 4.47635 8.51511 5.62044 7.53671C4.8371 7.24334 4.11707 7.88789 3.74013 8.49777C2.78451 10.0427 4.76642 11.3867 4.8371 9.76232Z" fill="white"/>
<path d="M6.5186 11.0688C6.18877 12.0674 7.05604 14.5329 8.17804 15.3336C7.78932 13.9563 7.42415 12.751 7.51839 11.3593C7.06635 11.2754 6.93825 11.2104 6.51713 11.0688H6.5186Z" fill="white"/>
<path d="M11.1213 15.7758C10.793 14.5026 10.8666 13.4042 10.8151 12.1324C10.3365 12.118 10.0774 12.0486 9.69748 11.9287C9.52373 13.1181 10.2423 15.1587 11.1213 15.7743V15.7758Z" fill="white"/>
<path d="M14.6362 5.88918C14.6318 6.03226 14.6833 6.18834 14.5272 6.32852C14.3579 6.14498 14.19 5.96144 14.0045 5.76056C12.6631 6.1999 14.4227 7.64366 15.1619 6.93695C15.5079 6.69271 15.6743 6.29239 15.5373 5.90942C15.4446 5.53222 14.5552 5.31399 14.6377 5.89063L14.6362 5.88918Z" fill="white"/>
</g>
<defs>
<clipPath id="clip0_1960_1286">
<rect width="56" height="56" fill="white"/>
</clipPath>
</defs>
</svg>
